<mxfile host="app.diagrams.net" modified="2023-04-24T21:09:02.454Z" agent="Mozilla/5.0 (Windows NT 10.0; Win64; x64) AppleWebKit/537.36 (KHTML, like Gecko) Chrome/112.0.0.0 Safari/537.36" version="21.2.1" etag="Lw4PrSdoAne49U42GfXi" type="github">
  <diagram name="PÃ¡gina-1" id="eIPVRo81PSio0kUsVM4l">
    <mxGraphModel>
      <root>
        <mxCell id="0" />
        <mxCell id="1" parent="0" />
      </root>
    </mxGraphModel>
  </diagram>
</mxfile>
